<svg version="1.1" xmlns="http://www.w3.org/2000/svg" xmlns:xlink="http://www.w3.org/1999/xlink" width="568.34241" height="595.96592" viewBox="58.59455,332.30702,568.34241,595.96592"><g fill="#ffffff" fill-rule="nonzero" stroke="#ffffff" stroke-width="1" stroke-linecap="round" stroke-linejoin="round" stroke-miterlimit="10" stroke-dasharray="" stroke-dashoffset="0" font-family="none" font-weight="none" font-size="none" text-anchor="none" style="mix-blend-mode: normal"><path d="M169.7408,421.61298c-0.27541,-0.22756 -0.36763,-0.9945 0.36642,-0.98833l0.0475,0.00042l347.54588,3.06327c0.96777,0.00814 1.14029,0.56782 0.34502,1.11938l-169.31554,117.42877c-3.05592,2.11943 -9.12667,2.06138 -12.1415,-0.11611zM144.94823,437.87044l58.65013,75.3487c0.76798,0.98664 0.30394,2.18628 -0.92808,2.39929l-40.38061,6.98152c-2.47511,0.42793 -3.02082,2.46418 -1.09143,4.07251l38.62554,35.06584l35.97648,32.98117l49.27104,44.36969l59.1963,62.11157c0.84424,1.07344 2.49758,1.04671 3.30668,-0.05346l50.59625,-54.75063l52.06947,-51.36254l83.96118,-75.2881c0.11233,-0.08356 -0.23811,-0.55236 -0.26006,-0.70213l-41.04226,-11.09598c-0.79278,-0.21433 -1.12588,-1.10921 -0.6662,-1.78975l117.09251,-173.35112l-32.45322,177.07319l49.56501,71.41952l-284.99884,346.47321l-282.34357,-348.83419l56.34387,-80.59981c0.29845,-0.42693 0.43367,-1.34852 0.27045,-1.84319l-52.18572,-158.15413zM345.38177,665.5657c-1.08673,2.13532 -3.52891,2.29495 -4.88435,0.31926l-15.46646,-22.54385c-1.23739,-1.80361 -0.2919,-3.74585 1.89096,-3.88449l29.68645,-1.88544c1.5608,-0.09913 2.41224,1.19556 1.70288,2.58938z" id="CompoundPath 1"/></g></svg>