<svg version="1.1" xmlns="http://www.w3.org/2000/svg" xmlns:xlink="http://www.w3.org/1999/xlink" width="auto" height="auto" viewBox="-645,-263,1890,1417"><defs><clipPath id="clip-1"><rect x="-645" y="-263" width="1890" height="1417" id="clip-1" fill="none" fill-rule="nonzero" stroke="none"/></clipPath><linearGradient x1="1095.20956" y1="-288.41841" x2="-112.56723" y2="768.08873" gradientUnits="userSpaceOnUse" id="color-1"><stop offset="0" stop-color="#ff0000"/><stop offset="1" stop-color="#000000"/></linearGradient></defs><g fill="none" fill-rule="none" stroke="none" stroke-width="1" stroke-linecap="butt" stroke-linejoin="miter" stroke-miterlimit="10" stroke-dasharray="" stroke-dashoffset="0" font-family="none" font-weight="none" font-size="none" text-anchor="none" style="mix-blend-mode: normal"><g><g clip-path="url(#clip-1)" id="Group 1"><path d="M508,-198h5c5.95,11.328 23.13,12.123 30,22c3.46,7.839 1.11,17.128 10,20c0.33,-1 0.67,-2 1,-3c1.92,-7.3 -4.13,-18.982 -1,-24l12,15h1c0.67,-1.666 1.33,-3.334 2,-5l35,1c25.33,29.66667 50.66333,59.33333 76,89c21,6 42,12 63,18c5.67,23.33333 11.33667,46.66667 17,70c4.76,1.48 7.2,1.04 10,-2c-1.67,-13.33333 -3.33667,-26.66667 -5,-40c14,-17 28,-34 42,-51l22,-2l30,-6c9.67,8.66667 19.33667,17.33333 29,26c30.27,26.819 54.71,48.3 21,92c6.48,41.146 -26.5,56.814 -44,83c-14.87,-2.76 -29.49,-19.862 -41,-28l-33,7v-1c0.33,-1 0.67,-2 1,-3c4.7,-2.645 8.23,-4.143 10,-10h-1c-11.59,4.093 -22.25,5.412 -36,8c0.28,2.366 -0.22,1.247 1,4l43,10c7.67,13.66667 15.33667,27.33333 23,41c-3.39,4.031 -4.87,3.722 -5,9c13.29,8.309 62.8,49.106 67,65c-7.3,4.935 -0.53,32.423 5,38c5.61,-7.741 7.7,-15.284 12,-24c8,-8.33333 16,-16.66667 24,-25c6.67,-14 13.33667,-28 20,-42c7.3,-18.769 9.74,-44.972 23,-58c-17.01,-21.709 -26.53,-40.711 -9,-69h1c1.67,3.33333 3.33667,6.66667 5,10c-1.33,4.33333 -2.66333,8.66667 -4,13l3,2l5,-1c0.88,-8.955 1.92,-20.953 7,-26c15.67,7 31.33667,14 47,21c-0.33,1.333 -0.67,2.667 -1,4c-5.33,2.66667 -10.66333,5.33333 -16,8c0.33,0.667 0.67,1.333 1,2h1c6.33,-2 12.66333,-4 19,-6c0.67,0.333 1.33,0.667 2,1c-0.87,10.674 -13.51,35.62 -21,41c-4.33,2.7 -16,2.348 -22,3c0.67,0.333 1.33,0.667 2,1c9.24,4.725 16.75,3.261 25,9c-24.33,59.32733 -48.66333,118.66067 -73,178c-3.8,5.161 -13.83,4.8 -18,10c2.03,4.42 2.88,7.736 2,13c-6.67,2.66667 -13.33667,5.33333 -20,8l-3,-1l-3,-22l-22,-3c-0.33,0.333 -0.67,0.667 -1,1c0.67,3.33333 1.33667,6.66667 2,10c-8.94,-2.3 -11.12,-9.111 -21,-11l-145,-2c-14.33,-1.99 -38.81,5.191 -45,-6c0.67,-0.333 1.33,-0.667 2,-1c7.97,2.93 31.05,0.435 43,-1h133v-3c-11.67,-9.33333 -23.33667,-18.66667 -35,-28h-58l-150,-4c2.42,-2.97 2.91,-2.029 4,-7h-3c-20.64,11.443 -36.95,27.175 -55,41c-1.67,-0.333 -3.33,-0.667 -5,-1c-0.3,-7.327 -2.55,-15.438 -9,-17c-4.33,2 -8.66333,4 -13,6c1.65,5.5 28.92,24.1 35,32c19,23.33333 38,46.66667 57,70c4.37,4.057 11.33,-0.668 16,2c25.33,35.66333 50.66333,71.33 76,107h-4c-4.83,-3.05 -62.5,-39.114 -70,-23c0.67,1 1.33,2 2,3c11.78,2.716 17.89,12.321 28,17c-0.67,1.333 -1.33,2.667 -2,4c-15.82,-5.507 -72.85,-19.806 -87,-15v1c0.33,0.333 0.67,0.667 1,1c34.25,2.221 72.55,21 93,39l18,-1v-6c-7,-11.33333 -14,-22.66667 -21,-34c9.16,1.628 50.44,24.649 56,31c-1.46,10.979 -22.04,52.127 -29,59h-1c-1.33,-4.33333 -2.66333,-8.66667 -4,-13v2c-2.25,4.991 -1.12,16.625 -6,19l-86,4l-176,11c-11.72,2.227 -75.958,5.219 -82,1l2,-3c7.33333,-1.66667 14.66667,-3.33333 22,-5c0.33,-1 0.67,-2 1,-3l-3,-2c-8.66667,-2.33333 -17.33333,-4.66667 -26,-7l-3,2l6,7v3l-31,19c7.775,21.268 6.006,47.841 13,73c3.372,12.13 16.051,19.735 18,34l-2,2l-27,5l-51,-41c-8.33333,-27.66667 -16.66667,-55.33333 -25,-83c-7.855,-20.135 -24.6,-34.7 -28,-61c5.2,-5.088 13.23,-6.385 16,-14c-10.462,0.428 -20.174,5.422 -27,10l19,45l-92,57c-11.448,6.464 -24.994,10.2 -33,20h4c7.813,-4.045 50.042,-20.395 54,-18l-2,3c-22.684,7.935 -43.7,30.917 -62,45l-4,-1v-1l6,-26h-4l-114,69l-2,-1l7,-10c-0.66667,-1.33333 -1.33333,-2.66667 -2,-4l-9,2l-40,54h-3c-0.333,-0.33 -0.667,-0.67 -1,-1c2.66667,-17.66667 5.33333,-35.33333 8,-53l-3,-1c-25.488,-9.419 -99.439,7.56 -109,-5c-4.838,2.283 -16.987,3.113 -22,0l1,-2c7.767,0.394 12.533,1.19 19,-1c-0.33333,-3.33333 -0.66667,-6.66667 -1,-10l24,-13c1.3,2.123 1.23,1.447 2,5c-2.582,6.02 -4.833,12.006 -2,18h1l56,-2c6.163,-5.136 4.607,-17.01 11,-22c7.98,5.95 14,14.017 19,23l5,-1c2.909,-8.108 79.925,-57.966 87,-58v4l-40,50c0.33333,1.33333 0.66667,2.66667 1,4l9,-1c10.537,-20.381 38.53,-38.67 43,-62l-2,-2c-14.588,1.888 -41.3,5.1 -54,-1c-0.33333,-1 -0.66667,-2 -1,-3c6.634,-5.255 -3.22,-9.243 1,-13c5.465,-5.312 75.525,-30.156 79,-28c-0.33333,0.66667 -0.66667,1.33333 -1,2c-9.367,3.6 -23.04,12.685 -28,21c0.33333,0.66667 0.66667,1.33333 1,2l23,-2l56,-61c19.365,-12.139 53.5,-3.975 72,-17c-0.33333,-0.66667 -0.66667,-1.33333 -1,-2c-6.857,-0.638 -19.624,1.216 -24,-2l4,-5c6.9,-2.345 16.972,-9.6 19,-17h-2l-21,1l-15,14l-2,-1c1.2,-6.816 4.241,-8.557 3,-15c-9.823,0.354 -21.01,-0.584 -28,3l-6,23h-5l-14,-15l9,-8c-0.33333,-1 -0.66667,-2 -1,-3l-83,-3l2,-3c24.992,0.294 123.334,0.252 135,-8c1.759,-8.631 6.732,-12.593 -1,-17c-21.053,5.713 -61.871,-0.211 -80,-3h-50v-4c0.33333,-0.66667 0.66667,-1.33333 1,-2h1c8.292,2.633 8.72,2.145 17,4c1.426,-2.8 2.444,-4.457 1,-8c-2.013,-2.531 -4.854,-2.722 -7,-5c30.059,-3.734 70.928,1.974 109,-5c4.912,-14.533 6.786,-33.626 15,-45l107,-38l1,1c-0.33333,1 -0.66667,2 -1,3c-27.51,13.547 -50.6,36.6 -75,54l-33,24c0.33333,0.66667 0.66667,1.33333 1,2l65,-1l67,-73l32,-36c8.641,-2.431 74.7,42.446 89,48v5c-25,22 -50,44 -75,66c0.33333,0.66667 0.66667,1.33333 1,2c25,-20 50,-40 75,-60h3c2.06,10.1 8.53,16 8,26c-45,29.33333 -90,58.66667 -135,88c-1.66667,-3.66667 -3.33333,-7.33333 -5,-11c-11.442,-2.345 -34.2,3.364 -41,10c8.515,6.781 22.547,1.434 34,6l9,8c11.167,3.58 25.1,-2.989 33,-5l-6,-5l142,-24c5.33,6.33333 10.66333,12.66667 16,19l6,-1v-4c-2.33,-1.333 -4.67,-2.667 -7,-4c0.33,-0.667 0.67,-1.333 1,-2c7.5,-11.755 27.56,-26.214 40,-33l42,13c0.33,-0.333 0.67,-0.667 1,-1c-0.33,-4.66667 -0.66333,-9.33333 -1,-14l-49,-9l-91,-77c-2.33,-8.33333 -4.66333,-16.66667 -7,-25c7.21,-10.05 25.85,-43.171 27,-56l-3,1c-11.33,16 -22.66333,32 -34,48c2.33,8.66667 4.66333,17.33333 7,26h-3c-28,-21.33333 -56,-42.66667 -84,-64l48,-74c-15.895,-6.746 -43.391,0.958 -64,-1c-38.638,-3.67 -73.853,-3.977 -103,-5c-0.33333,3 -0.66667,6 -1,9l-109,-2c-11.773,0 -36.3,3.5 -44,-2l2,-3c51.43,-3.467 86.013,-35.432 136,-20l-4,2c2.23693,7.72617 8.98827,13.28609 17,14v-1c-3.582,-6.617 -6.78,-7.756 -4,-17c12.183,0.866 15.793,0.424 27,-1l2,2l-5,9c6.774,1.892 4.992,2.31 6,9l6,-3c-3.932,-5.133 -6.205,-9.388 -3,-16l203,-3l33,-17v-2c-0.33,-0.667 -0.67,-1.333 -1,-2l-136,-1c-20.471,2.181 -50.215,2.833 -67,-1c-0.33333,-0.66667 -0.66667,-1.33333 -1,-2c2.306,-6.378 4.354,-9.648 3,-14l-5,1c0.445,4.91 -2.928,13.876 -5,15l-43,-1v-1l5,-6c-1.66667,-3.66667 -3.33333,-7.33333 -5,-11c2.68,-1.611 4.924,-2.022 10,-2l2,2c-2.984,3.653 -7.117,8.124 -5,14c1.355,2.055 1.12,1.609 3,3c5.02,-1.871 4.944,-0.965 11,0c0.33333,-1 0.66667,-2 1,-3c-2.744,-5.9 0.174,-7.376 -5,-14c0.33333,-0.66667 0.66667,-1.33333 1,-2l234,-2c11.33,-13.33333 22.66333,-26.66667 34,-40l37,10v3c-12.84,4.545 -50.82,16.164 -58,25v1h2c16.33,6.579 67.07,-26.161 81,-32c11.93,-5 30.32,3.443 43,5c-0.33,-1 -0.67,-2 -1,-3l-42,-14c-4.33,4.33333 -8.66333,8.66667 -13,13c-0.67,-0.333 -1.33,-0.667 -2,-1c-0.56,-20.373 4.59,-25.32 11,-37c-0.33,-0.667 -0.67,-1.333 -1,-2c-48.24,0.489 -92.09,4.409 -134,-3c-10.16,-1.8 -34.25,3 -40,-3c-0.33,-1.333 -0.67,-2.667 -1,-4h1c2.01,3.832 1.53,3.491 7,4c0.33,-1.333 0.67,-2.667 1,-4c-0.33,-1 -0.67,-2 -1,-3l-7,1v-11l114,-4c1.67,-2 3.33,-4 5,-6c15.1,2 41.45,12.015 58,3c4.54,-19.547 22.65,-31.333 25,-52l-3,-1c-14.37,4.908 -100.59,-0.451 -117,-2c-8.23,-0.777 -24.12,0.679 -28,-5l130,-4c4.23,-15.287 -2.35,-29.961 -3,-45l4,1c7.33,14.33333 14.66333,28.66667 22,43c3.02,-1.259 1.2,0.018 3,-2c-0.33,-10 -0.66333,-20 -1,-30c-18.57,-7.276 -32.87,-51.8 -52,-58l-215,-1l-31,36l-9,2c-8.583,9.549 -10.66,24.306 -20,33l-5,-1c-0.792,-16.738 -0.08,-30.133 11,-37l7,1v-1c-2.661,-3.635 -5.456,-4.255 -10,-6c0.928,-6.921 2.935,-6.106 4,-13c-18.983,3 -36,23.09 -54,19v-1l3,-14l17,-13c-0.33333,-0.66667 -0.66667,-1.33333 -1,-2h-4c-9.913,8.22 -23.112,14.451 -33,22c-3.4,-1.346 -2.069,-0.607 -4,-3c5.721,-14.488 11.242,-39.193 24,-47c2.277,1.611 1.768,1.81 5,3c0.921,-5.215 1.227,-12.557 5,-15c6.509,-4.215 96.349,-21.258 104,-17c2.531,2.621 1.663,3.031 1,7l12,-3l-2,-3l-19,-12l1,-2l85,-4c-3.48,7.924 -25.07,10.823 -33,14v1c0.33,0.333 0.67,0.667 1,1l140,-27c-0.86,6.94 -2.83,7.974 1,12c4.12,-1.041 6.82,-0.783 9,-4c-1.33,-6 -2.66333,-12 -4,-18zM567,-166c-0.67,11.091 14.69,23.529 20,33c17.23,30.748 29.71,64.187 46,94c-0.33,1.333 -0.67,2.667 -1,4h-1c-12.12,-2.64 -28.73,-9.324 -40,-8v1c9.55,11.349 32.29,7.559 46,15c2.67,3 5.33667,6 8,9c1.67,-0.667 3.33,-1.333 5,-2v-1c-9.88,-30.522 -60.38,-134.385 -83,-145zM314,-151c-0.33333,2 -0.66667,4 -1,6l2,1l1,-1c-0.312,-4.238 0.062,-3.964 -2,-6zM551,-151c-2.33,7.8 1.5,15.907 6,20c0.33,-1.333 0.67,-2.667 1,-4c-1.5,-6.009 -1.64,-13.476 -7,-16zM167,-140h6v4l-8,9c-11.084,0.241 -23.589,1.976 -31,-1l2,-3c9.749,-0.226 24.582,-4.2 31,-9zM202,-124c-0.33333,1 -0.66667,2 -1,3l1,1l2,-3zM192,-81l4,2c-0.33333,4.66667 -0.66667,9.33333 -1,14c-2.38,5.98 -9.089,15.312 -16,14c0.26,-14.091 8.632,-19.577 13,-30zM110,-63l-58,-8c0.33333,-0.66667 0.66667,-1.33333 1,-2c9.409,-1.836 44.418,-6.08 52,-3c1.923,1.392 0.6,0.1 2,2zM458,-69l18,3v1c-0.67,1.333 -1.33,2.667 -2,4c-8.09,1.266 -15.87,8.064 -22,4zM133,-56l6,1c2.086,4.122 3.532,7.519 2,13h-1l-21,-7c-0.33333,-1.66667 -0.66667,-3.33333 -1,-5l1,-1c6.46,0.374 10.264,1.354 14,-1zM-149,-52l37,10l-3,2c-7.267,3.634 -22.058,7.712 -29,7c-2.462,-6.024 -6.114,-12.943 -5,-19zM664,-39c-1.25,3.628 -1.01,5.433 1,8v-2c1.02,-3.171 0.84,-3.6 -1,-6zM663,-28c-1.67,2 -3.33,4 -5,6c0.06,4.538 0.2,5.747 2,8l3,-2zM1008,-27c5.53,-0.138 8.88,0.459 12,2c1.05,8.387 -4.79,36.92 -11,43l-9,-5c0.57,-11.432 3.32,-30.826 8,-40zM988,-11c5.29,0.266 4.82,-0.232 7,3c2.24,6.436 -1.32,18.782 -3,25h-9c0.67,-8.33333 1.33667,-16.66667 2,-25zM1025,-10c6.88,0.633 6.8,2.015 9,7c-3.67,12.66667 -7.33667,25.33333 -11,38l-8,-1c-2.96,-10.733 5.07,-35.123 10,-44zM1041,16l9,2v9c-4.26,2.67 -4.75,9.731 -6,15c-4,1.307 -5.9,0.51 -9,-1c-1.51,-8.091 2.34,-18.5 6,-25zM762,56l-12,10c-11.64,15.4 -17.38,42.137 -34,52l-47,1c-6.25,4 -9.82,14.124 -10,24h1c0.67,-0.333 1.33,-0.667 2,-1l12,-20h47c12.67,-13 25.33667,-26 38,-39c-2.77,-2.15 -5.07,-1.61 -7,-5c4.85,-7.01 12.15,-12.379 14,-22zM391,66c-0.33,1.333 -0.67,2.667 -1,4h2c-0.33,-1.333 -0.67,-2.667 -1,-4zM402,66v4h4v-4zM574,79c-1.67,1 -3.33,2 -5,3v2c17.25,6.527 33.86,20.2 53,22v-1c-0.67,-1 -1.33,-2 -2,-3c-16.71,-6.2 -25.76,-18.224 -46,-23zM370,102c9.33,8.66667 18.66333,17.33333 28,26c-0.33,0.667 -0.67,1.333 -1,2h-1c-10.41,-1.134 -24.19,-4.733 -30,-11c0.66667,-4.66667 1.33333,-9.33333 2,-14c0.67,-1 1.33,-2 2,-3zM304,111l5,1c3.251,2.482 4.31,7.1 6,11c-0.33333,0.66667 -0.66667,1.33333 -1,2l-22,-7c-0.33333,-1 -0.66667,-2 -1,-3c0.33333,-0.66667 0.66667,-1.33333 1,-2zM634,148c-1.67,2.33333 -3.33667,4.66667 -5,7c0.33,1.666 0.67,3.334 1,5l3,-1c1.67,-2 3.33,-4 5,-6v-4zM278,159c0.33333,3.66667 0.66667,7.33333 1,11l2,-2c-0.752,-3.006 -1.091,-7.091 -3,-9zM266,162c0.024,3.062 -0.962,1.4 1,4h1c-0.66667,-1.33333 -1.33333,-2.66667 -2,-4zM224,163c-0.441,4.192 -0.5,3.632 1,7h5v-7zM295,166c-0.33333,1.33333 -0.66667,2.66667 -1,4h3c-0.912,-3.651 0.038,-2.045 -2,-4zM258,167c-0.33333,0.66667 -0.66667,1.33333 -1,2l1,1l2,-1zM699,193c-0.33,-3.333 -0.67,-6.667 -1,-10h-1c-24.22,8.318 -40.31,38.056 -67,42l-3,-4l-15,8c2.78,3.069 3.48,3.083 4,9l117,-3c17.25,-0.034 50.12,5.03 63,-2c-9.7,-16.957 -47.25,-60.793 -68,-65c-5.64,7.775 -18.36,23.057 -29,25zM673,169c-1.67,2.33333 -3.33667,4.66667 -5,7h1c2.33,-2 4.66333,-4 7,-6zM664,178zM659,182c-7.67,7.442 -14.89,16.112 -25,21v3c0.67,0.333 1.33,0.667 2,1c8.33,-8 16.66333,-16 25,-24c-0.67,-0.333 -1.33,-0.667 -2,-1zM197,209l-7,1c0.66667,2 1.33333,4 2,6l5,-1zM605,232zM-323,269c6.958,2.118 46.913,34.877 49,41h-8c-11.132,-4.819 -25.771,-6.429 -39,-9c-2.057,-9.913 -5.254,-23.725 -2,-32zM135,273l21,1l3,10l-1,1c-9.17,-0.218 -16.881,-4.239 -23,-8zM105,279c11.623,1.093 19.16,10.048 28,15v3l-59,18l-3,-1l4,-7zM242,282l17,2c0.33333,0.66667 0.66667,1.33333 1,2v2l-23,7v-6zM668,286c0.33,0.667 0.67,1.333 1,2c-0.33,-0.667 -0.67,-1.333 -1,-2zM-62,357c5.105,1.334 7.747,3.934 11,7v1l-3,2c-6.184,3.1 -15.891,5.735 -22,5l2,-5zM437,372v4h6v-1c-0.67,-1 -1.33,-2 -2,-3zM584,372c-0.67,0.667 -1.33,1.333 -2,2c0.33,0.667 0.67,1.333 1,2h2l11,-1v-1c-0.33,-0.333 -0.67,-0.667 -1,-1zM-120,401c3.027,1.932 1.619,0.2 3,4l-47,34c-9.428,-1.329 -33.349,-15.55 -36,-24h2zM16,442h4c-0.33333,1.33333 -0.66667,2.66667 -1,4h-5v-1zM55,446l-7,7c0.33333,1 0.66667,2 1,3l1,1c8.075,-1.488 4.491,-1.3 13,0v-2c0.33333,-1 0.66667,-2 1,-3zM188,462l-9,2l-16,16c0.33333,1.33333 0.66667,2.66667 1,4h19c-1.346,-10.646 3.843,-11.662 9,-18c-0.66667,-1.33333 -1.33333,-2.66667 -2,-4zM-11,487l13,1v1c-5.267,0.326 -10.518,0.471 -13,-2zM638,505c-2.67,1 -5.33,2 -8,3v1c11.82,0.623 29.61,3.357 40,-1c-9.84,-4.363 -21.35,-2.314 -32,-3zM-62,539h6l6,5v3l-25,7c1.9,-7.357 8.181,-10.571 13,-15zM-165,547c5.652,5.476 -5.747,19.269 -10,25l-49,9l-1,-3l1,-2zM-97,569c5.869,5.7 -6.346,18.8 -11,24h-3l-15,-15c0.33333,-1 0.66667,-2 1,-3c9.012,-0.278 21.625,-2.271 28,-6zM-41,599l9,3l2,1c-3.173,5.077 -2.654,6.226 0,12l-4,6c-16.829,-0.188 -25.547,17.6 -35,28l-52,-5l-3,-2l3,-2l43,-9c12.223,-3.553 22.644,-9.935 34,-14c-0.372,-7.92 0.015,-13.883 3,-18zM-76,600c5.513,0.4 5.72,0.177 5,4c2.279,7.075 0.277,13.442 -4,17l-3,-1c-1.474,-6.542 -0.387,-10.7 -1,-18zM-59,600l7,2c-0.33333,5.33333 -0.66667,10.66667 -1,16l-7,-1c0.626,-6.076 -0.329,-7.511 -1,-14zM-93,602l4,1l-5,5c0.33333,-2 0.66667,-4 1,-6zM-94,613c1.847,2.794 0.722,0.137 1,4h-1zM-364,653l11,5v5h-2l-22,5c2.251,-6.913 8.89,-9.75 13,-15zM62,667h3v1c-7.611,12.133 -22.864,21.166 -34,30l-34,33c-19.66667,14 -39.33333,28 -59,42c-1.333,-0.33 -2.667,-0.67 -4,-1v-1c0.333,-0.67 0.667,-1.33 1,-2c13.33333,-16.66 26.66667,-33.32667 40,-50zM-95,705h3l2,2c-14,18.66667 -28,37.33333 -42,56h1c10.33333,-6.66667 20.66667,-13.33333 31,-20c1.333,0.33 2.667,0.67 4,1c-2.483,15.53 -28.8,92.36 -37,103c-9.225,0.05 -37.366,1.74 -41,-3c-3.279,-9.5 8.9,-56.31 14,-63c4.605,-1.47 8.8,-4.05 11,-8c-0.33333,-14.66667 -0.66667,-29.33333 -1,-44c8.321,-14.3 41.624,-14.246 55,-24zM-178,734l4,2c-0.33333,10.33333 -0.66667,20.66667 -1,31l-23,21h-3c-0.333,-0.67 -0.667,-1.33 -1,-2c8,-17.33 16,-34.66333 24,-52zM-70,759c-0.883,9.56 -39.806,82.23 -45,84c-0.33333,-1 -0.66667,-2 -1,-3c6.562,-27.62 9.255,-54.34 22,-76c8,-1.67 16,-3.33667 24,-5zM-367,776c-2.33333,9.67 -4.66667,19.33667 -7,29c-1.666,0.33 -3.334,0.67 -5,1c-4.5,-5.7 -12.129,-8.94 -14,-17c6.521,-5.03 16.463,-11.88 26,-13zM-242,781h4v4c-10.33333,12.33 -20.66667,24.66333 -31,37c-0.667,-0.33 -1.333,-0.67 -2,-1c1.61,-26.19 16.587,-26.12 29,-40zM-195,818c1,0.33 2,0.67 3,1c5.573,21.36 16.726,46.84 -2,62c-0.667,-0.33 -1.333,-0.67 -2,-1c0.33333,-20.66 0.66667,-41.32667 1,-62zM-278,849c6.638,1.8 9.661,10.53 8,17c-12.33333,0.33 -24.66667,0.66333 -37,1c-0.333,-0.67 -0.667,-1.33 -1,-2c1.632,-2.56 1.232,-2.42 4,-4zM-132,866c3.19,2.1 2.478,1.04 3,6c-7.33333,18.66 -14.66667,37.32667 -22,56c-0.667,0.33 -1.333,0.67 -2,1c-16.965,-5.06 -28.678,-22.42 -21,-48zM-220,868c6.323,0.85 8.014,3.14 12,6v1l-24,9c-0.333,-0.33 -0.667,-0.67 -1,-1v-3zM-379,898c6.086,0.61 7.971,2.55 12,5v3c-0.667,0.67 -1.333,1.33 -2,2l-22,6c-0.333,-1.33 -0.667,-2.67 -1,-4zM124,963c4.735,-0.06 6.662,0.13 9,2c-1.231,3.01 -1.3,1.83 -1,5c7.207,-3.62 67.311,-5.05 81,3c1.835,-0.74 48.711,-1.52 56,1c1.667,1.33 3.333,2.67 5,4c22.541,-3.27 73.279,4.27 101,21c0.33,1.67 0.67,3.33 1,5c-26.774,16.88 -50.555,28.36 -86,21c-1.011,4.96 -0.7,3.75 -4,6l-8,-3c-1.038,4.32 -0.352,2.8 -3,5c-18.109,-2.8 -33.795,7.53 -51,3v-1c2.212,-2.06 1.882,-1.38 3,-5c-4.645,3.66 -30.452,15.86 -41,11c-2.178,-1 0.823,-4.33 -4,-4c-2,1.33 -4,2.67 -6,4c-4.227,-0.7 -13.583,-6.62 -22,-4c-4.41,1.37 -9.791,7.48 -17,6c-7.882,-1.62 -18.1,-5.76 -27,-4c-5.607,1.11 -48.381,8.08 -59,5c-12.333,-3.58 -40.4,-5.44 -56,-4c-28.635,2.65 -69.551,-1.32 -97,-7c-10.809,-2.24 -28.556,0.85 -41,-1c-40.543,-6.02 -77.062,-10.08 -109,-25c0.333,-2.67 0.667,-5.33 1,-8c15.66667,-5.33 31.33333,-10.66333 47,-16c38.32933,-4.33 76.66267,-8.66333 115,-13h34c21,-1.33 42,-2.66333 63,-4c45.8,-10.55 83.9,17.42 116,-3zM275,1027c0.667,0.33 1.333,0.67 2,1c-0.667,-0.33 -1.333,-0.67 -2,-1zM238,1031l-2,3c3.138,-1.77 1.476,-1.01 2,-3z" id="CompoundPath 1" fill="url(#color-1)" fill-rule="evenodd" stroke="#6d1515"/></g></g></g></svg>